<svg xmlns="http://www.w3.org/2000/svg" width="96" height="66" fill="none" viewBox="0 0 96 66">
    <path fill="#2D3277"
        d="M95.8 31.1C95.8 14 74.5 0 48.2 0S.6 14 .6 31.1v1.8c0 18.2 18.6 32.9 47.6 32.9 29.1 0 47.6-14.7 47.6-32.9v-1.8Z" />
    <path fill="#FFE600"
        d="M94.1 31.1c0 16.1-20.5 29.2-45.7 29.2-25.2 0-45.7-13.1-45.7-29.2S23.2 1.9 48.4 1.9c25.2 0 45.7 13.1 45.7 29.2Z" />
    <path fill="#fff"
        d="M33.2 21.9s-.5.5-.2.9c.7.9 2.9 1.4 5.2.9 1.3-.3 3.1-1.7 4.7-3 1.8-1.4 3.6-2.9 5.4-3.4 1.9-.6 3.1-.3 3.9-.1.9.3 1.9.9 3.6 2.1 3.1 2.3 15.7 13.3 17.9 15.2 1.7-.8 9.5-4.1 20.1-6.5a25 25 0 0 0-9.5-15c-7.2 3-16.1 4.6-24.8.4 0 0-4.7-2.2-9.4-2.1-6.9.2-9.8 3.1-13 6.3l-3.9 4.3Z" />
    <path fill="#fff"
        d="M73.2 35.7a754 754 0 0 0-18.1-15.4 9.3 9.3 0 0 0-4.1-2c-.6-.1-1.4 0-2 .2-1.5.4-3.6 1.8-5.4 3.2-1.9 1.5-3.6 2.9-5.2 3.2-2.1.5-4.6-.1-5.7-.9-.5-.3-.8-.7-1-1.1-.4-1 .4-1.8.5-1.9l4-4.4 1.4-1.4-3.7.8c-1.5.4-2.9.8-4.3.8-.6 0-3.8-.5-4.4-.7-3.7-1-6.9-2-11.7-4.2A26 26 0 0 0 2.8 27.4l2.7.7c13 2.9 17 5.9 17.8 6.5a4.4 4.4 0 0 1 6.7.4c.7-.6 1.8-1.1 3.1-1.1l1.9.3c1.5.5 2.2 1.5 2.6 2.4.5-.2 1.1-.4 1.8-.4s1.4.2 2.2.5c2.4 1 2.8 3.4 2.6 5.2h.5a5.2 5.2 0 0 1 4.6 7.6c.8.4 2.7 1.4 4.5 1.2 1.4-.2 1.9-.6 2.1-.9.1-.2.3-.4.1-.6l-3.7-4.1s-.6-.6-.4-.8c.2-.2.6.1.9.3 1.9 1.6 4.1 3.9 4.1 3.9s.2.3 1 .5c.7.1 2 0 2.9-.7l.6-.6c.9-1.2-.1-2.4-.1-2.4L57 40.5s-.6-.6-.4-.8c.2-.2.6.1.9.3 1.4 1.1 3.3 3.1 5.1 4.9.4.3 2 1.3 4.1-.1 1.3-.9 1.6-1.9 1.5-2.7-.1-1-.9-1.8-.9-1.8l-5.8-5.9s-.6-.5-.4-.8c.2-.2.6.1.9.3l6.9 6.2c.1 0 1.8 1.3 4-.1.8-.5 1.3-1.2 1.3-2.1.1-1.3-1-2.2-1-2.2Z" />
    <path fill="#fff"
        d="M44.9 43.2c-.9 0-1.9.5-2 .5l.1-.6c.1-.2 1.3-3.8-1.6-5.1-2.2-1-3.6.1-4 .6-.1.1-.2.1-.2 0 0-.6-.3-2.4-2.3-3-2.8-.9-4.5 1.1-5 1.8a3.2 3.2 0 0 0-3.2-2.8 3.2 3.2 0 0 0-3.2 3.2c0 1.8 1.4 3.2 3.2 3.2a3 3 0 0 0 2.2-.9v.1c-.1.8-.4 3.7 2.6 4.8 1.2.5 2.2.1 3.1-.5.3-.2.3-.1.3.1-.1.7 0 2.3 2.3 3.2 1.7.7 2.7 0 3.3-.6.3-.3.4-.2.4.2a4 4 0 1 0 4-4.2Z" />
    <path fill="#2D3277"
        d="M73.8 34.2c-4.5-3.9-14.9-13-17.8-15.1-1-1-2.3-1.7-3.7-2.1-.4-.1-1-.3-1.8-.3-.7 0-1.5.1-2.3.4-1.8.6-3.6 2-5.4 3.4l-.1.1a14.3 14.3 0 0 1-4.6 2.9l-1.7.2c-1.4 0-2.7-.4-3.2-1-.1-.1 0-.3.2-.5l4-4.3c3.1-3.1 6-6 12.8-6.2h.3c4.2 0 8.4 1.9 8.9 2.1a28 28 0 0 0 25.4-.3l-1.6-1.3a25.7 25.7 0 0 1-23-.1 25 25 0 0 0-9.7-2.3h-.4c-5.7.1-8.9 2.1-11 3.9-2.1 0-3.9.6-5.5 1-1.4.4-2.7.7-3.9.7h-1.5c-1.4 0-8.4-1.7-13.9-3.9l-1.7 1.2a72 72 0 0 0 15.1 4.4l2 .1c1.5 0 2.9-.4 4.4-.8l2.7-.7-.8.8-4 4.4c-.3.3-1 1.2-.6 2.2.2.4.6.8 1.1 1.2a9 9 0 0 0 6 .9c1.7-.4 3.5-1.8 5.3-3.3 1.5-1.2 3.6-2.7 5.2-3.2l1.5-.2h.4c1.1.1 2.1.5 4 1.9C61 25.4 67 30.6 73 35.8c0 0 .9.8.9 2.2 0 .7-.5 1.4-1.2 1.9-.6.4-1.3.6-1.9.6-1 0-1.7-.5-1.7-.5l-6.9-6.2c-.3-.3-.6-.5-.9-.5l-.4.2c-.3.4 0 .9.4 1.2l5.9 5.9s.7.7.8 1.6c0 1-.4 1.8-1.4 2.4-.7.5-1.4.7-2.1.7-.9 0-1.5-.4-1.7-.5l-.9-.8a48.7 48.7 0 0 0-4.3-4c-.3-.2-.6-.5-.9-.5-.1 0-.3 0-.4.2-.1.1-.2.4.1.9l.3.3 4.3 4.8s.9 1.1.1 2l-.2.2-.4.4c-.7.6-1.7.7-2.1.7h-.6c-.4-.1-.7-.2-.9-.4-1.6-1.5-3.2-3-5-4.3l-.4.2c-.3.4.2 1 .4 1.2l3.7 4-.1.3c-.1.2-.6.6-1.9.8h-.5c-1.4 0-2.8-.7-3.6-1.1a5.4 5.4 0 0 0-4.9-7.7h-.2c.1-1.4-.1-4-2.8-5.1-.8-.3-1.5-.5-2.3-.5a5 5 0 0 0-1.7.3c-.6-1-1.5-2-2.7-2.3a7 7 0 0 0-2-.3c-1.1 0-2.1.3-3 1a4.6 4.6 0 0 0-6.8-.4c-1.1-.9-5.6-3.7-17.7-6.5l-2.7-.8-.3 2 2.7.6c6 .9 11.9 3 17.1 6.1l-.3 1.8c0 2.6 2.1 4.6 4.6 4.6l.9-.1a5.3 5.3 0 0 0 5.1 4.3l1.1-.1c.3.9 1.1 2 2.9 2.7a4 4 0 0 0 3.2.1c.8 2 2.8 3.4 5 3.4 1.5 0 2.9-.6 3.9-1.7 1.4.8 3 1.3 4.6 1.4h.7c1.9-.2 2.7-1 3.1-1.5l.2-.3 1.5.2c1 0 2-.3 3-1.1 1-.7 1.7-1.7 1.7-2.6l1 .1c1 0 2.1-.3 3.1-1a4.5 4.5 0 0 0 2.2-3.9l1 .1c1 0 2-.3 2.9-.9a4.2 4.2 0 0 0 1.4-5.8c3.2-1.4 10.4-4 19-6a7 7 0 0 0-.3-2 99.6 99.6 0 0 0-19.9 6.4ZM44.9 50.9c-2 0-3.6-1.6-3.7-3.6 0-.2 0-.6-.4-.6l-.5.2c-.4.4-1 .8-1.8.8l-1.2-.3c-2.1-.9-2.2-2.3-2.1-2.9l-.1-.4-.1-.1h-.1l-.4.2c-.6.4-1.2.6-1.8.6l-1-.2a3.8 3.8 0 0 1-2.4-4.5l-.1-.4-.2-.2-.2.2c-.6.5-1.3.8-2 .8a2.9 2.9 0 1 1 0-5.8 3 3 0 0 1 2.9 2.5l.1.8.4-.7c0-.1 1.2-1.9 3.4-1.8l1.3.2c1.7.5 2 2.1 2 2.7 0 .4.3.4.3.4l.3-.2a3 3 0 0 1 2.1-.9c.5 0 1 .1 1.6.4 2.7 1.2 1.5 4.6 1.5 4.7-.2.6-.3.8 0 1h.2l.5-.1c.4-.1.9-.3 1.4-.3 2 0 3.7 1.7 3.7 3.7a3.6 3.6 0 0 1-3.6 3.8Z" />
</svg>