<svg xmlns="http://www.w3.org/2000/svg" width="302" height="301" fill="none" viewBox="0 0 302 301">
    <path fill="#A0DBE8"
        d="M98.1 230.7c2.4-1.1 4.8-2 7.3-3l8.4-2.9a129.3 129.3 0 0 1 25.4-5.1c-2.8 8.7-5.8 17.4-9.2 26l.3 5a108.4 108.4 0 0 1 41.4 0c0-1.7.1-3.4.3-5-3.3-8.6-6.4-17.3-9.2-26a121.4 121.4 0 0 1 33.8 8 130.2 130.2 0 0 1 52.5 36.4 150.2 150.2 0 1 0-196.2 0 130.2 130.2 0 0 1 45.2-33.4Z" />
    <path fill="#525353"
        d="M108 257.9c7-3.1 14.5-5.5 22.2-7 0-1.7-.1-3.4-.3-5 3.3-8.6 6.4-17.3 9.2-26a121.4 121.4 0 0 0-25.4 5.1c-2.8.9-5.6 1.8-8.4 2.9l10.9 2.7-8.2 27.3ZM82.2 274c.3-2.8.4-5.6.4-8.5 0-1.7 1.4-3.1 3.1-3.1h2.7l9.6-31.8c-17 7.6-32.5 18.8-45.2 33.4 7 6.1 14.6 11.5 22.6 16.2l6.8-6.2Zm121.6-43.3 9.6 31.8h2.7c1.7 0 3.1 1.4 3.1 3.1 0 2.9.2 5.7.4 8.5 2.3 2 4.6 4 6.7 6.2 8.1-4.7 15.6-10.1 22.6-16.2a128.9 128.9 0 0 0-45.1-33.4Zm-18.3-.3 10.9-2.7-8.4-2.9a129.3 129.3 0 0 0-25.4-5.1c2.8 8.7 5.8 17.4 9.2 26l-.3 5c7.8 1.5 15.2 3.9 22.2 7l-8.2-27.3Z" />
    <path fill="#000"
        d="M150.9 262.5h21.2c-.4-3.9-.6-7.8-.5-11.6a108.4 108.4 0 0 0-41.4 0 90 90 0 0 1-.5 11.6h21.2Zm-75.4 17.7 5.3 3c.6-3 1.1-6.1 1.4-9.2l-6.7 6.2Z" />
    <path fill="#000"
        d="M106.6 262.5h23.2c.4-3.9.6-7.8.5-11.6-7.8 1.5-15.2 3.9-22.2 7l-1.5 4.6ZM219.7 274c.3 3.1.8 6.2 1.4 9.2a71 71 0 0 0 5.3-3l-6.7-6.2Zm-24.4-11.5-1.4-4.6c-7-3.1-14.5-5.5-22.2-7a90 90 0 0 0 .5 11.6h23.1Z" />
    <path fill="#AA9678"
        d="m106.6 262.5 1.4-4.6 8.3-27.5-10.9-2.7c-2.5.9-4.9 1.9-7.3 3l-9.6 31.8h18.1Zm87.3-4.6 1.4 4.6h18.1l-9.6-31.8c-2.4-1.1-4.8-2-7.3-3l-10.9 2.7 8.3 27.5Z" />
    <path fill="#C0B098" d="m88.8 268.9.3-.2h-.3v.2Z" />
    <path fill="#C0B098"
        d="M150.9 268.7H89.1l-.3.2a89 89 0 0 1-2.3 17.2 149 149 0 0 0 64.4 14.5v-31.9Z" />
    <path fill="#AA9678" d="M213.1 268.7h-.3l.3.2v-.2Z" />
    <path fill="#AA9678" d="M212.8 268.7h-61.9v31.9c23 0 44.9-5.2 64.4-14.5a90 90 0 0 1-2.5-17.4Z" />
    <path fill="#8B7460"
        d="M219.7 274c-.3-2.8-.4-5.6-.4-8.5 0-1.7-1.4-3.1-3.1-3.1H85.6a3.1 3.1 0 0 0-3.1 3.1 92.7 92.7 0 0 1-1.8 17.7l5.7 2.9a90 90 0 0 0 2.3-17.2v-.2H213v.2a89 89 0 0 0 2.3 17.2l5.7-2.9c-.6-3-1-6.1-1.3-9.2Z" />
    <path fill="#BBBCBD"
        d="M250.9 117a50.5 50.5 0 0 0-5.7-6.7l-.7-.6-1.2-1v14l5.3 24.5.2.6 3.7 4.2h3.9v-1.1c0-11.6-1.9-22.7-5.3-33.1l-.2-.8Z" />
    <path fill="#676A6A" d="M249.2 149.5v.2l.1 1.8v.6l-.1 1.7v.2l-.3 1.8 3.7-4.1-3.7-4.2.3 2Z" />
    <path fill="#000"
        d="M249.1 154.2v-.2l.1-1.7v-.8l-.1-1.8v-.2l-.3-1.8-.2-.6c-.4-1.2-.8-2.2-1.4-3.1l-.2-.3-.5-.6-.8-.7-.3-.2-.7-.4-.3-.1-1.1-.2-1.1.2-.3.1-.7.4-.3.2-.8.7-.5.6-.2.3c-.6.9-1.1 1.9-1.4 3.1v.1l-.4 1.7-.1.5-.2 2v.3c0 5.7 2.7 10.4 6 10.4.6 0 1.1-.2 1.7-.4l.3-.1.6-.4.3-.3.8-.8.5-.7.3-.5.5-1 .2-.4.5-1.5.1-1.8Zm-5.6-3.8c-1.3 0-2.3-1.7-2.3-3.9 0-2.1 1-3.9 2.3-3.9 1.3 0 2.3 1.7 2.3 3.9s-1.1 3.9-2.3 3.9Z" />
    <path fill="#fff"
        d="M243.5 150.4c1.3 0 2.3-1.7 2.3-3.9s-1-3.9-2.3-3.9c-1.3 0-2.3 1.7-2.3 3.9s1 3.9 2.3 3.9Z" />
    <path fill="#909393"
        d="M237.9 147.1c.4-1.2.8-2.2 1.4-3.1l.2-.3.5-.6.8-.7.3-.2.7-.4.3-.1 1.1-.2 1.1.2.3.1.7.4.3.2.8.7.5.6.2.3c.6.9 1.1 1.9 1.4 3.1l-5.3-24.5-5.3 24.5Z" />
    <path fill="#000"
        d="m172.4 151.6-.1-1.5-.2-1.4a5 5 0 0 0-.4-1.3 7 7 0 0 0-.5-1.3l-.6-1.2c-.7-1.2-1.5-2.3-2.5-3.2a16 16 0 0 0-6.9-3.7h-.1a12.4 12.4 0 0 0-5.4 0h-.1l-2.5.7h-.1a15.6 15.6 0 0 0-4.3 2.8h-.1c-1 1-1.9 2.1-2.6 3.3l-.6 1.2-.1.1-.4 1.1-.1.2-.3 1.1-.1.3-.2 1.1-.1.3-.1 1.5.3 2.7v.1c.2.9.4 1.7.8 2.6a16 16 0 0 0 2.9 4.4 16.4 16.4 0 0 0 4.5 3.2h.1l1.1.4.2.1 1.1.3.3.1 1.1.2.3.1 1.5.1c2 0 3.8-.4 5.5-1.1l2.4-1.3a13.7 13.7 0 0 0 5.1-6.2c.7-1.7 1.1-3.6 1.1-5.5v-.1l.1-.2Zm-14.1-1.7a5.3 5.3 0 0 1-5.3-5.3c0-2.9 2.4-5.3 5.3-5.3s5.3 2.4 5.3 5.3-2.4 5.3-5.3 5.3Z" />
    <path fill="#fff" d="M158.3 149.9a5.3 5.3 0 1 0 0-10.6 5.3 5.3 0 0 0 0 10.6Z" />
    <path fill="#BBBCBD"
        d="m148.5 141.5 9.8-29.9v-7c-5.4-1.1-11-1.7-16.7-1.7l-5.7.2-.8.1c-9.8.7-19.4 3.3-28.3 7.4a91.3 91.3 0 0 0-31.4 23.7l-.9 1.1-4.1 5.1-.3.4-3.6 5.2-.7 1-2.6 4.5h44.4l40.9-10.1Z" />
    <path fill="#E2DDDB"
        d="m186 138.2.2-3.5.2-4.7v-4.8c0-3.2-.2-6.3-.3-9.5l-.1-.1-.1-.1-3.3-1.9h-.1l-.9-.5-.6-.4-.1-.1-.5-.3a110 110 0 0 0-21.9-7.8v7l9.7 29.8c1 .9 1.9 2 2.5 3.2l.6 1.2.5 1.3.4 1.3.2 1.4.1 1.5v.1h11.8c.8-4.3 1.4-8.7 1.7-13.1 0 .1 0 .2 0 0Z" />
    <path fill="#FBB040"
        d="M172.5 194.2a534 534 0 0 0 7.6-7.7l4.2-4.4a92.6 92.6 0 0 0 21.8-34.9v-.2l.3-1.6.1-1.2c-1.1-5.6-3.2-11.1-5.1-16.5v.1l-.1-.1-1.1-1-3.4-3a91.4 91.4 0 0 0-10.9-7.9c.2 3.2.3 6.3.3 9.5v4.8l-.2 4.7-.2 3.5v.4c-.4 4.4-.9 8.8-1.7 13.1l-1.4 6.6c-2.9 11.8-8.8 22.4-13.6 33.4-1.3 2.9-2.5 5.9-3.6 8.9l-.3.9 3.9-4 3.4-3.4Z" />
    <path fill="#909393"
        d="m148.6 141.5 2-1.6a10 10 0 0 1 2.3-1.2h.1c.8-.3 1.6-.6 2.5-.7h.1a12.4 12.4 0 0 1 5.4 0h.1a14 14 0 0 1 6.9 3.7l-9.7-29.8-9.7 29.6Z" />
    <path fill="#676A6A"
        d="m145.2 157.1-.8-2.6v-.1l-.3-2.7.1-1.5.1-.3.2-1.1.1-.3.3-1.1.1-.2.4-1.1.1-.1.6-1.2c.7-1.2 1.6-2.3 2.6-3.3l-41 10.1h-.1l40.6 9.9a12.3 12.3 0 0 1-3-4.4Z" />
    <path fill="#E2DDDB"
        d="m237.4 149.4.1-.5.4-1.7v-.2l5.3-24.5v-14c-4.4-3.6-9-5.6-13.9-5.6a24 24 0 0 0-16.2 7.6 62.9 62.9 0 0 0-11.3 16.2l-.4.8 2.7 2.4 5.9 5.6 2.7 2.7 2.8 2.9 3.5 3.8 1.5 1.6 4.2 4.7.5.5h12.1v-.3l.1-2Z" />
    <path fill="#525353"
        d="m55.9 167.1.1-.3 2.5-6 .8-1.6a65.7 65.7 0 0 1 3.3-6.5l.6-1 2.6-4.5.7-1c1.1-1.8 2.3-3.5 3.6-5.2l.3-.4c1.3-1.8 2.7-3.5 4.1-5.1l.9-1.1 4.4-4.7.9-.9c1.6-1.6 3.2-3.1 5-4.6a53.5 53.5 0 0 1 99.9-9.2l.1.1.4.7a91.4 91.4 0 0 1 14.3 10.9l1.1 1 .4-.8c3.4-21.7 13-37.4 24.3-37.4 8.5 0 16.1 8.9 20.7 22.6v.1a64.9 64.9 0 0 1 4 4.8l.2.6-.2-.7A105.4 105.4 0 0 0 51 183.4v-.1a137.8 137.8 0 0 1 4.9-16.2Z" />
    <path fill="#fff"
        d="m252.5 151.8-3.7 4.1-.5 1.5-.2.4-.5 1-.3.5-.5.7a3 3 0 0 1-.8.8l-.3.3a2 2 0 0 1-.6.4l-.3.1c-.5.3-1.1.4-1.7.4-3.3 0-6-4.6-6-10.4H225c2.3 2.6 4.5 5.2 6.6 7.9l.1.1 6.3 7.8.3.4 5.8 7.5.6.7 6 8v.1c3.5-10.3 5.4-21.2 5.5-32.6l-3.7.3Z" />
    <path fill="#000"
        d="m135.1 103.1.8-.1 5.7-.2c5.7 0 11.3.6 16.7 1.7v2.7-2.7c3.8.9 10.6 2.8 15.7 4.9a117.5 117.5 0 0 1 7.4 3.7l.9.5h.1l3.3 1.9.1.1.1.1-.4-.7-.1-.1A54.4 54.4 0 0 0 137.3 85a54.3 54.3 0 0 0-51.8 39.1 87 87 0 0 1 49.6-21Zm78.1 7.5a24 24 0 0 1 16.2-7.6c4.9 0 9.6 2 13.9 5.6l1.2 1 .7.6 1.8 1.9v-.1c-4.7-13.7-12.2-22.6-20.7-22.6-11.3 0-20.9 15.6-24.3 37.4a58 58 0 0 1 11.2-16.2Z" />
    <path fill="#fff"
        d="m113.4 248.9 2.9 1a105.5 105.5 0 0 0 74.1-1.7l1.9-.8a42.3 42.3 0 0 0 5.8-2.7l-.6.1a42 42 0 0 1-11.2-.1c-21.7-3.1-26.5-13.6-25.8-24.4a143.9 143.9 0 0 0 .7-10.7l1.2.5c.9-3.1 2-6.1 2.9-8.7l.3-.9c1.1-3 2.3-6 3.6-8.9 4.8-11 10.7-21.7 13.6-33.4l1.4-6.6h-11.8v.1c0 2-.4 3.8-1.1 5.5-.4.8-.8 1.7-1.3 2.4a13.7 13.7 0 0 1-6.2 5.1c-1.7.7-3.6 1.1-5.5 1.1l-1.5-.1-.3-.1-1.1-.2-.3-.1-1.1-.3-.2-.1-1.1-.4h-.1l-1.2-.6c-1.2-.7-2.3-1.5-3.3-2.6l-40.6-9.9H63.2l-.6 1-1 1.9-2.3 4.6-.8 1.6-2.5 6-.1.3a137.8 137.8 0 0 0-4.8 16.3c7 21.3 20.5 39.6 38.3 52.4l1.6 1.1a90 90 0 0 0 9.3 5.8 84 84 0 0 0 13.1 6.5Z" />
    <path fill="#9F2255"
        d="m186.1 216.1-.3 3.3a34 34 0 0 0 1.1 8.9 30 30 0 0 0 3.8 8.3l.7 1.1 1.1 1.5 1.4 1.7c1.9 2.2 3.5 3.4 3.5 3.4v.1l.1.3.6-.1c4.7-.6 9.4-1.9 14.1-3.5l7.1-2.8 2.1-1c24.1-11.7 44.3-32.3 44.3-32.3a132 132 0 0 1-79.6 11.1Z" />
    <path fill="#E2066F"
        d="m244.3 175.5-5.8-7.5-.3-.4-6.3-7.8-.1-.1a551 551 0 0 0-6.6-7.9l-.4-.5-4.2-4.7-1.5-1.6-3.5-3.8-2.8-2.9-2.7-2.7a156 156 0 0 0-5.9-5.6l-2.7-2.4c1.9 5.5 4.1 11 5.2 16.7l.7 4.3c2.7 19.7-3.7 32.6-13.7 49.6l-2.2 3.7a38.1 38.1 0 0 0-4.6 10.9l-.7 3.3a132 132 0 0 0 79.6-11.1s-5.9-8.7-14.9-20.7l-6-8-.6-.8Z" />
    <path fill="#000"
        d="M197.4 244.5s-1.5-1.2-3.5-3.4l-1.4-1.7-1.1-1.5-.7-1.1-2.1-3.8a47 47 0 0 1-1.7-4.5 32.4 32.4 0 0 1-.8-12.2l.7-3.3c.9-3.4 2.3-7 4.6-10.9l2.2-3.7c10-17 16.4-29.8 13.7-49.6l-.7-4.3a15 15 0 0 1-.5 2.6v.2l-.3 1.2a92.6 92.6 0 0 1-21.5 33.7l-4.2 4.4-7.6 7.7-3.3 3.2-3.9 4c-.9 2.6-2 5.6-2.9 8.7l-1.2-.5c-19.2-7.4-32.1-17.4-32.1-17.4a140.3 140.3 0 0 0 31.4 28.1c-.7 10.9 4.1 21.3 25.8 24.4 3.7.5 7.4.5 11.2.1l-.1-.4Z" />
</svg>