<svg xmlns="http://www.w3.org/2000/svg" width="92" height="45" viewBox="0 0 92 45">
    <linearGradient id="sap-id" x1="45.5" x2="45.5" y2="45" gradientUnits="userSpaceOnUse">
        <stop offset="0" stop-color="#00AEEF" />
        <stop offset=".2" stop-color="#0097DC" />
        <stop offset=".5" stop-color="#007CC5" />
        <stop offset=".8" stop-color="#006CB8" />
        <stop offset="1" stop-color="#0066B3" />
    </linearGradient>
    <path fill="url(#sap-id)" fill-rule="evenodd" d="M0 45h46L91 0H0v45" clip-rule="evenodd" />
    <path fill="#fff" fill-rule="evenodd"
        d="M54 9h-9v21.1L37.2 9h-7.8l-6.6 17.6c-.7-4.4-5.4-6-9-7.2-2.4-.7-5-1.9-5-3.1 0-1 1.4-2 4-1.9 1.9.1 3.5.3 6.6 1.8l3.1-5.4a24.2 24.2 0 0 0-10.1-2.4c-3.8 0-7 1.2-9 3.2A7.5 7.5 0 0 0 1.3 17a7 7 0 0 0 3 6.2 21 21 0 0 0 6.1 2.8c2.5.8 4.6 1.4 4.5 2.9 0 .5-.2 1-.6 1.4-.6.6-1.5.8-2.8.9C8.9 31 7 30.7 4 29l-2.7 5.4c3 1.7 6.1 2.6 9.8 2.6h.8a12 12 0 0 0 7.7-2.4l.3-.3-.3 1.7H27l1.4-3.5a14.9 14.9 0 0 0 9.5 0l.9 3.5h13.6v-8h3c7 0 11-3.5 11-9.5C66.6 12 62.6 9 54 9zM33.3 27c-1 0-2-.1-2.9-.4l2.9-9 2.8 9c-.8.3-1.8.5-2.8.5zm21.2-5h-2v-7.3h2c2.6 0 4.7.9 4.7 3.6s-2 3.6-4.7 3.6"
        clip-rule="evenodd" />
    <path fill="none" d="M0 0h92v45H0z" />
</svg>
  