<svg xmlns="http://www.w3.org/2000/svg"
  viewBox="0 0 1000 319.7">
  <g style="fill:#ee4d2d;fill-rule:evenodd">
    <path
      d="M35.7 45c-.4 2.7-2 5-4.6 6a12 12 0 0 1-5 .9c-2.3-.1-4.5-.7-6.6-1.8l-2.7-1.8c-.2-.2-.2-.3 0-.5a88.3 88.3 0 0 1 1-1.6c.2-.2.4-.3.6 0h.2l.2.2a13 13 0 0 0 7.4 2.8c3.6 0 6.3-1.7 6.7-4.2.5-2.7-1.6-5.1-5.9-6.5l-5.3-2c-2.9-1.8-4.3-4-4-6.8.2-3.8 3.8-6.7 8.3-6.7a15.2 15.2 0 0 1 8.2 2.5c.3.2.3.4.2.6l-.5.8-.4.7c-.2.2-.3.2-.6 0-2-1.3-4.3-2-6.9-2-3 0-5.4 1.9-5.6 4.4 0 2.3 1.7 4 5.4 5.2 7.5 2.4 10.4 5.3 9.9 9.8M26.4 5.4c4.9 0 8.9 4.7 9 10.5h-18c.2-5.8 4.2-10.5 9-10.5M51.8 17c0-.6-.4-1.1-1-1.1H38.9C38.6 8.2 33 2.1 26.4 2.1c-6.8 0-12.2 6.1-12.5 13.8H2a1 1 0 0 0-1 1.2l1.7 37a4.4 4.4 0 0 0 0 .4v.1c.3 2.6 2.1 4.7 4.7 4.8h37.4a4.4 4.4 0 0 0 .1 0 5.2 5.2 0 0 0 5-4.8 5.7 5.7 0 0 0 0-.3L51.7 17m124.8 24.2c.7-2.4 2.9-4 5.4-4a6 6 0 0 1 5.5 4l.1.1h-11zm13.5 3.4a1 1 0 0 0 1-1.2c0-5.2-4-9.4-9-9.4a9.2 9.2 0 0 0-9.1 10.5v.2c.2 1.8 1 3.5 2.3 5a9.7 9.7 0 0 0 5.4 3h.4c2.8.3 5.2 0 7.3-1.1a9 9 0 0 0 1.8-1.3c.5-.4.5-.6.3-1a48 48 0 0 0-1-1.6l-.1-.1c-.3-.4-.5-.4-.8-.1h-.1a8.4 8.4 0 0 1-8.9 1.3 6 6 0 0 1-3.3-4.1v-.1zm-35.2-3.4c.8-2.4 3-4 5.5-4a6 6 0 0 1 5.5 4v.1h-11zm13.5 3.4h.1a1 1 0 0 0 1-1.2c0-5.2-4.1-9.4-9.1-9.4a9.2 9.2 0 0 0-9 10.5v.2c.2 1.8 1 3.5 2.3 5a9.7 9.7 0 0 0 5.4 3h.4c2.7.3 5.2 0 7.3-1.1a9 9 0 0 0 1.8-1.3c.5-.4.5-.6.2-1a48 48 0 0 0-1-1.6v-.1c-.3-.4-.5-.4-.8-.1h-.1a8.4 8.4 0 0 1-9 1.3 6 6 0 0 1-3.2-4.1v-.1zm-30 5.1a6.2 6.2 0 0 1-6.2-6v-.3a6 6 0 0 1 6.2-6c3.5 0 6.3 2.7 6.3 6.1 0 3.5-2.8 6.2-6.3 6.2m0-15.6c-2.2 0-4.3.7-6 2.1l-.2.2v-1.8c0-.4-.1-.5-.6-.5h-2.2c-.4 0-.5 0-.5.5v27.7c0 .4 0 .5.5.5h2.2c.5 0 .6 0 .6-.5V50.7l.2.2a9.5 9.5 0 0 0 15.6-7.4c0-5.2-4.3-9.4-9.6-9.4M116 49.5a6.2 6.2 0 0 1-6.2-6.1 6.3 6.3 0 0 1 12.5 0c0 3.4-2.8 6.1-6.3 6.1m0-15.5a9.5 9.5 0 0 0-9.6 9.4c0 5.2 4.3 9.4 9.6 9.4s9.6-4.2 9.6-9.4-4.3-9.4-9.6-9.4m-21.3.2a9 9 0 0 0-5.3 1.8H89V23.4c0-.5-.2-.6-.6-.6h-2.3c-.4 0-.5.1-.5.6v29.2c0 .5 0 .6.5.6h2.3c.4 0 .6-.1.6-.6V43a5.5 5.5 0 0 1 11 0v9.5c0 .5.1.6.6.6h2.3c.4 0 .5 0 .5-.6V43a9 9 0 0 0-9-8.8M62.9 47.8l-.5.8c-.3.4-.2.6.2.9.9.7 2 1.5 2.8 1.9 2.3 1 4.6 1.6 7.2 1.7 1.6 0 3.6-.3 5.1-1a8 8 0 0 0 4.9-6.6c.5-4.8-2.6-7.7-10.7-10.2-3.7-1.2-5.5-2.8-5.5-5 .2-2.5 2.4-4.3 5.5-4.4 2.5 0 4.7.6 6.9 2 .4.3.7.3 1-.1l.5-.8.5-.8c.3-.5.3-.7-.2-1a16.1 16.1 0 0 0-8.8-2.5c-4.8.1-8.6 3.2-8.8 7.3-.2 3 1.3 5.4 4.5 7.2a49 49 0 0 0 5.6 2.1c4.3 1.3 6.5 3.6 6 6.3-.4 2.5-3 4.1-6.6 4.2a13.2 13.2 0 0 1-7.8-2.9l-.2-.1c-.4-.3-.7-.3-1 .1l-.6.9"
      style="fill:#ee4d2d" transform="translate(-5.3 -11) scale(5.26316)" />
  </g>
</svg>