<svg xmlns="http://www.w3.org/2000/svg" width="269" height="302" fill="none" viewBox="0 0 269 302">
    <path fill="#EE4D2D" fill-rule="evenodd"
        d="M183.6 225.8a38.8 38.8 0 0 1-24.2 31.6 64 64 0 0 1-26.3 4.8 81.7 81.7 0 0 1-34.8-9.5l-14.2-9.5c-1-1-1-1.6 0-2.6l5.3-8.4c1-1 2-1.6 3.1 0h1l1.1 1a68.4 68.4 0 0 0 39 14.7c19 0 33.2-8.9 35.3-22 2.6-14.3-8.5-26.9-31-34.3l-28-10.5c-15.3-9.5-22.6-21-21-35.8 1-20 20-35.2 43.6-35.2a80 80 0 0 1 43.2 13.1c1.6 1 1.6 2.1 1 3.2l-2.6 4.2-2 3.7c-1.1 1-1.7 1-3.2 0a65.3 65.3 0 0 0-36.4-10.6c-15.7 0-28.4 10-29.4 23.2 0 12.1 9 21 28.4 27.4 39.5 12.6 54.7 27.9 52 51.5Zm-49-208.4c25.8 0 46.9 24.8 47.4 55.3H87.3c1-30.5 22-55.3 47.3-55.3Zm133.7 61c0-3-2-5.7-5.2-5.7h-62.7C199 32.2 169.4 0 134.6 0 99 0 70.4 32 69 72.7H6.2A5.3 5.3 0 0 0 1 79l9 194.7v2.7c1.5 13.7 11 24.7 24.6 25.2H232a27.4 27.4 0 0 0 26.3-26.8l9.5-196.3"
        clip-rule="evenodd" />
</svg>