<svg xmlns="http://www.w3.org/2000/svg" width="53" height="60" fill="none" viewBox="0 0 53 60">
    <g clip-path="url(#a)">
        <path fill="#95BF47"
            d="M46.4 11.6c0-.3-.3-.5-.6-.5l-4.4-.1-4-3.8c-.3-.4-1-.3-1.3-.2l-1.8.5c-.2-.6-.4-1.3-.8-2C32.2 3 30.3 1.6 28 1.6h-.5l-.2-.2a5 5 0 0 0-3.7-1.5c-3 0-5.8 2.2-8.2 6a21.8 21.8 0 0 0-3.2 8.4l-5.8 1.8c-1.7.5-1.7.5-2 2.1C4.6 19.5 0 53.6 0 53.6L37 60l16-4-6.6-44.4ZM32.4 8l-2.8 1c0-1.6-.2-3.6-.9-5.4 2.2.4 3.3 3 3.8 4.4Zm-4.7 1.5-6.2 2c.6-2.4 1.7-4.6 3.1-6.1.5-.6 1.3-1.2 2.1-1.6.8 1.7 1 4.1 1 5.7Zm-4-7.7a3 3 0 0 1 1.8.5c-.8.4-1.6 1-2.3 1.8a17 17 0 0 0-3.8 8l-5 1.5C15.4 9 19.2 2 23.7 1.8Z" />
        <path fill="#5E8E3E"
            d="M45.9 11h-4.5l-4-3.8a.9.9 0 0 0-.5-.3V60l16-4-6.5-44.4c0-.3-.3-.5-.5-.5Z" />
        <path fill="#fff"
            d="m28 19.3-1.8 7s-2-1-4.5-.8c-3.6.2-3.7 2.5-3.6 3 .2 3.1 8.3 3.8 8.8 11.1.4 5.7-3 9.7-8 10-5.8.4-9-3.1-9-3.1l1.2-5.3s3.2 2.4 5.9 2.3a2.3 2.3 0 0 0 2.2-2.5c-.2-4-7-3.8-7.3-10.5-.4-5.6 3.3-11.3 11.4-11.8a10 10 0 0 1 4.8.6Z" />
    </g>
    <defs>
        <clipPath id="a">
            <path fill="#fff" d="M0 0h53v60H0z" />
        </clipPath>
    </defs>
</svg>