<svg xmlns="http://www.w3.org/2000/svg" width="780" height="180" fill="none" viewBox="0 0 780 180">
    <path fill="#7D57A4" fill-rule="evenodd"
        d="M38.7 14.4h206.7a23.7 23.7 0 0 1 23.7 23.7V117a23.7 23.7 0 0 1-23.7 23.7h-74.1l10.1 24.9-44.8-25h-98A23.7 23.7 0 0 1 15 117V38.1a23.7 23.7 0 0 1 23.7-23.7Z"
        clip-rule="evenodd" />
    <path fill="#fff"
        d="M27.8 35.9a8.6 8.6 0 0 1 6.5-3.2c5.3-.4 8.3 2 9 7.4 3.3 21.7 6.8 40 10.5 55.2L76.6 52c2-4 4.6-6 7.8-6.2 4.5-.3 7.4 2.6 8.5 8.7a199 199 0 0 0 9.9 35.5c2.7-26.4 7.3-45.4 13.7-57.2a8 8 0 0 1 6.8-4.6c2.4-.2 4.7.6 6.6 2a8 8 0 0 1 3.1 6c.2 1.8-.1 3.5-1 5-4 7.6-7.3 20.1-10 37.6-2.5 16.9-3.5 30-2.8 39.6.2 2.3-.2 4.7-1.2 6.8a6.5 6.5 0 0 1-5.6 3.7c-2.7.3-5.4-1-8.2-3.8a104 104 0 0 1-23-44.2l-15 30c-6 11.7-11.3 17.7-15.7 18-2.8.2-5.2-2.2-7.2-7.1-5.3-13.6-11-39.9-17.1-78.9a8.9 8.9 0 0 1 1.6-7ZM251 52.2a24.1 24.1 0 0 0-16.6-12c-1.9-.4-3.7-.6-5.6-.6-10 0-18.1 5.2-24.4 15.5-5.4 8.8-8.2 19-8 29.3 0 8 1.6 14.8 5 20.5a24 24 0 0 0 16.5 12c1.9.4 3.8.6 5.7.6 10 0 18.1-5.1 24.3-15.5 5.4-8.8 8.2-19 8.1-29.4 0-8-1.7-14.8-5-20.4ZM237.9 81a27 27 0 0 1-7.9 15.4c-3 2.7-5.8 3.8-8.4 3.3-2.5-.5-4.6-2.7-6-6.7-1.3-3-1.9-6.2-2-9.5a34.3 34.3 0 0 1 6.2-20c3.6-5 7.2-7.1 11-6.3 2.5.5 4.5 2.7 6 6.7a27.6 27.6 0 0 1 1.1 17.1ZM186 52.2a24.1 24.1 0 0 0-16.7-12 26 26 0 0 0-5.6-.6c-10 0-18.1 5.2-24.4 15.5-5.4 8.8-8.2 19-8 29.3 0 8 1.6 14.8 5 20.5a24 24 0 0 0 16.5 12c1.9.4 3.8.6 5.7.6 10 0 18.2-5.1 24.3-15.5a56 56 0 0 0 8.2-29.4c0-8-1.7-14.8-5-20.4ZM172.7 81a27 27 0 0 1-7.9 15.4c-3 2.7-5.8 3.8-8.4 3.3-2.5-.5-4.5-2.7-6-6.7-1.2-3-1.9-6.2-1.9-9.5a34.6 34.6 0 0 1 6.2-20c3.5-5 7-7 10.9-6.3 2.5.5 4.5 2.8 6 6.7 1.2 3 1.8 6.2 1.9 9.5a37 37 0 0 1-.8 7.6Z" />
    <path fill="#000"
        d="M295.4 51.3A35.3 35.3 0 0 0 285 77.4c0 11.4 3.4 20.6 10.3 27.6 6.8 7 15.8 10.5 26.9 10.5 3.6-.1 7.3-.7 10.8-1.7V97c-3 1-6.2 1.5-9.5 1.6-5.5 0-9.9-1.9-13.2-5.5-3.3-3.7-5-8.8-4.9-15.1 0-5.9 1.6-10.7 5-14.6a15.6 15.6 0 0 1 12.3-5.7c3.5 0 7 .5 10.3 1.5V42.4c-3.7-1-7.5-1.4-11.3-1.4a35.8 35.8 0 0 0-26.3 10.3Zm72-10.3c-9.5 0-17 3.2-22.4 9.6-5.4 6.3-8 15.2-8 26.6a44 44 0 0 0 8 28.4c5.3 6.5 13 9.8 23.3 9.8 9.8 0 17.4-3.3 22.7-9.8a43 43 0 0 0 8-27.6c0-11.9-2.7-21-8.1-27.4-5.4-6.4-13.2-9.6-23.4-9.6Zm8.3 54a9.2 9.2 0 0 1-8.3 4.4A8.3 8.3 0 0 1 360 95a38 38 0 0 1-2.7-17.5c0-13.7 3.5-20.5 10.4-20.5 7.3 0 11 6.9 11 20.7 0 8.6-1 14.3-3 17.3Zm74.7-52-3.8 15.9c-1 4-1.8 8.2-2.7 12.5l-2 11c-2-11-4.8-24.1-8.2-39.4h-24.1l-9 70.7h18l5-48.7 12.3 48.7h12.9L460.6 65l5 48.6h19L475 43h-24.6Zm86.5 0-3.7 15.9c-1 4-1.9 8.2-2.7 12.5l-2.1 11a905 905 0 0 0-8.2-39.4h-24.1l-9.1 70.7h18l5-48.8 12.4 48.8h12.9L547 65l5.1 48.6h19L561.4 43H537Zm58.7 42.7h17V71h-17V58h19.5V43h-38.6v70.7h38.8V98.6h-19.7V85.7Zm73.5-11.2a19.3 19.3 0 0 0-4.9-25.7A35 35 0 0 0 643 43h-22.3v70.7h19.2V81.5h.3l15.4 32.2h20.2l-15.3-32a18 18 0 0 0 8.7-7.2Zm-29.3-1v-17c4.5.1 7.7.9 9.7 2.3 2 1.4 3 3.7 3 7 0 4.9-4.3 7.4-12.7 7.5Zm43.5-22.2A35.2 35.2 0 0 0 673 77.4c0 11.4 3.5 20.6 10.3 27.5 7 7 15.9 10.5 27 10.5 3.6 0 7.3-.6 10.8-1.6V97c-3 1-6.2 1.5-9.5 1.6-5.5 0-9.9-1.9-13.2-5.5a22 22 0 0 1-5-15.1c0-5.9 1.7-10.7 5-14.6a15.6 15.6 0 0 1 12.3-5.7c3.5 0 7 .5 10.4 1.5V42.4c-3.7-1-7.5-1.4-11.4-1.4a35.8 35.8 0 0 0-26.3 10.3Zm62 47.3V85.7h17V71h-17V58H765V43h-38.7v70.7H765V98.6h-19.7Z" />
</svg>