<svg xmlns="http://www.w3.org/2000/svg" width="48" height="48" fill="none" viewBox="0 0 48 48">
    <path fill="#C6392B"
        d="M35.64 35.34c1.46-3.85 2.87-7.71 4.32-11.56l3.95-10.54c.57-2.12-1.45-4.1-3.49-4.19-1.53-.15-2.85 1.02-3.29 2.42-2.24 5.93-4.43 11.88-6.67 17.8-.55 1.84-1.63 3.56-1.68 5.52.09 1.64 1.46 3.17 3.16 3.17 1.64.11 3.41-.94 3.7-2.62Z" />
    <path fill="url(#a)"
        d="M18.96 33.18c-1.72-4.63-3.49-9.24-5.23-13.86-.98-2.67-2.02-5.32-3.02-7.97a3.64 3.64 0 0 0-3.16-2.33C5.49 8.78 3.88 10.87 4 12.8c.03 1.32.85 2.42 1.19 3.66l6.59 17.44c.6 1.21.69 2.85 2 3.59 2 1.22 5.15-.04 5.4-2.48a3.4 3.4 0 0 0-.23-1.84Z" />
    <path fill="url(#b)"
        d="m35.48 33.18-4.84-12.8c-1.17-3.05-2.29-6.13-3.5-9.17-.68-1.69-2.78-2.69-4.48-1.98-1.88.78-2.85 3.28-1.78 5.06 2.24 6.02 4.56 12 6.8 18.01.64 1.45 1 3.03 1.83 4.39a3.33 3.33 0 0 0 4.66.68c1.29-.91 1.96-2.7 1.3-4.2Z" />
    <path fill="url(#c)"
        d="M19.12 35.3c1.62-4.1 3.07-8.26 4.65-12.37 1.15-3 2.2-6.06 3.4-9.04 1.22-2.47-1.55-5.58-4.14-4.73-1.6.33-2.42 1.92-2.83 3.36C17.76 19 15.36 25.51 12.93 32c-.5 1.25-1.02 2.67-.4 3.98.73 1.97 3.37 2.5 5.05 1.46a3.12 3.12 0 0 0 1.54-2.14Z" />
    <defs>
        <linearGradient id="a" x1="7.46" x2="15.02" y1="12.9" y2="32.37"
            gradientUnits="userSpaceOnUse">
            <stop stop-color="#242384" />
            <stop offset="1" stop-color="#2D1A80" />
        </linearGradient>
        <linearGradient id="b" x1="25.61" x2="32.12" y1="16.86" y2="34.28"
            gradientUnits="userSpaceOnUse">
            <stop stop-color="#AF0379" />
            <stop offset=".8" stop-color="#C12D3C" />
            <stop offset="1" stop-color="#C6392B" />
        </linearGradient>
        <linearGradient id="c" x1="24.6" x2="14.94" y1="10.71" y2="36.66"
            gradientUnits="userSpaceOnUse">
            <stop stop-color="#AF0379" />
            <stop offset=".5" stop-color="#710E7C" />
            <stop offset="1" stop-color="#2D1A80" />
        </linearGradient>
    </defs>
</svg>