<svg xmlns="http://www.w3.org/2000/svg" id="Capa_1" data-name="Capa 1" viewBox="0 0 674.1 251.6">
    <defs>
        <linearGradient id="Degradado_sin_nombre_7" x1="41.5" x2="79.1" y1="90.5" y2="187.4"
            gradientUnits="userSpaceOnUse">
            <stop offset="0" stop-color="#242384" />
            <stop offset="1" stop-color="#2d1a80" />
        </linearGradient>
        <linearGradient id="Degradado_sin_nombre_30" x1="131.8" x2="164.2" y1="110.2" y2="196.9"
            gradientUnits="userSpaceOnUse">
            <stop offset="0" stop-color="#af0379" />
            <stop offset=".8" stop-color="#c12d3c" />
            <stop offset="1" stop-color="#c6392b" />
        </linearGradient>
        <linearGradient id="Degradado_sin_nombre_154" x1="126.8" x2="78.7" y1="79.6" y2="208.7"
            gradientUnits="userSpaceOnUse">
            <stop offset="0" stop-color="#af0379" />
            <stop offset=".5" stop-color="#710e7c" />
            <stop offset="1" stop-color="#2d1a80" />
        </linearGradient>
    </defs>
    <path
        d="M288.4 71.5a17.4 17.4 0 0 0-17.6 17.3v67.4a23.8 23.8 0 1 1-47.6 0V88.8c0-9.6-8-9.4-17.6-9.4s-17.3-.2-17.3 9.3v68a58.9 58.9 0 0 0 58.6 58.3 59 59 0 0 0 58.8-58.3v-68a17.3 17.3 0 0 0-17.3-17.3Z"
        fill="currentColor" />
    <path
        d="M270.8 152v4.2a23.8 23.8 0 1 1-47.6 0V88.8c0-9.6-8-9.4-17.6-9.4s-17.3-.2-17.3 9.3v68a58.9 58.9 0 0 0 58.6 58.3 59 59 0 0 0 58.8-58.3v-4.3Zm116.3-80.3a71.6 71.6 0 0 0-72.3 72.3 70.7 70.7 0 0 0 72.3 70.5c14.8 0 26.9-3.4 37.5-10.6 3 6.3 9.5 10.6 15.4 10.6a17.2 17.2 0 0 0 17.6-17.6v-52.8c0-40.6-31-72.4-70.5-72.4Zm0 34.6a37 37 0 0 1 35.9 37.8 35 35 0 0 1-35.9 35.8c-20.8 0-37.7-16-37.7-35.9a38.2 38.2 0 0 1 37.7-37.7ZM483.4 20A17.5 17.5 0 0 0 466 37.3v160.2a17.4 17.4 0 1 0 34.8 0V37.3A17.3 17.3 0 0 0 483.4 20Zm96.2 51.7a71.6 71.6 0 0 0-72.3 72.3 70.7 70.7 0 0 0 72.3 70.5c14.8 0 26.9-3.4 37.4-10.6 3 6.3 9.6 10.6 15.5 10.6a17.2 17.2 0 0 0 17.6-17.6v-52.8c0-40.6-31-72.4-70.5-72.4Zm0 34.6a37 37 0 0 1 35.9 37.8 35 35 0 0 1-35.9 35.8c-20.8 0-37.7-16-37.7-35.9a38.2 38.2 0 0 1 37.7-37.7ZM591 26.5a17.5 17.5 0 0 0-12.3-5 18 18 0 0 0-12.2 4.8l-.2.1-.1.2a18 18 0 0 0-4.8 12.2 17.5 17.5 0 0 0 5 12.3 17.1 17.1 0 0 0 12.3 5.2 16.7 16.7 0 0 0 12.3-5.2 16.8 16.8 0 0 0 5.2-12.3 17.2 17.2 0 0 0-5.2-12.3Z"
        fill="currentColor" />
    <path
        d="m181.7 202.2.5-1.4.3-.7.3-.7.2-.7.3-.7.2-.7.3-.7.3-.7.2-.7.3-.7.3-.7.2-.7.3-.7.2-.7.3-.8.3-.7.2-.7c0-.3.2-.4.3-.7l.3-.7.2-.7c0-.3.2-.4.3-.7l.3-.7.2-.7.3-.7.2-.7.3-.7.3-.7.2-.7.3-.7.3-.7.2-.7.3-.7.3-.7.2-.7.3-.8.2-.7c0-.3.2-.4.3-.7l.3-.7.2-.7c0-.3.2-.4.3-.7l.3-.7.2-.7c0-.3.2-.5.3-.7l.3-.7.2-.7.3-.7.2-.7.3-.7.3-.7.2-.7.3-.7.3-.7.2-.7.3-.8.3-.7.2-.7.3-.7.2-.7c0-.3.2-.4.3-.7l.3-.7.2-.7c0-.3.2-.5.3-.7l.3-.7.2-.7.3-.7.3-.7.2-.7.3-.7.2-.7.3-.7.3-.7.2-.7.3-.7.3-.8.2-.7c0-.3.2-.4.3-.7l.3-.7.2-.7.3-.7.2-.7c0-.3.2-.5.3-.7l.3-.7.2-.7.3-.7.3-.7.2-.7.3-.7.3-.7.2-.7.3-.7.2-.7.3-.7.3-.8.2-.7c0-.3.2-.4.3-.7l.3-.7.2-.7c0-.3.2-.4.3-.7l.3-.7.2-.7.3-.7.2-.7.3-.7.3-.7.2-.7.3-.7.3-.7.2-.7.3-.7.3-.7.2-.7.3-.8.2-.7c0-.3.2-.4.3-.7l.3-.7.2-.7c0-.3.2-.4.3-.7l.3-.7.2-.7c0-.3.2-.5.3-.7l.3-.7.2-.7.3-.7.2-.7.3-.7.3-.7.2-.7.3-.7.3-.7.2-.7.3-.7.3-.8.2-.7.3-.7.2-.7c0-.3.2-.4.3-.7l.3-.7.2-.7c0-.3.2-.5.3-.7l.3-.7.2-.7.3-.7.3-.7.2-.7.3-.7.2-.7.3-.7.3-.7.2-.7a3.6 3.6 0 0 0 .2-.4 17 17 0 0 0-3.6-19.7 17.5 17.5 0 0 0-12.3-5 18.2 18.2 0 0 0-12.3 5 20 20 0 0 0-3 4.4 15.7 15.7 0 0 0-1 2.4c-.2.2-.2.5-.3.7l-.3.7-.2.7-.3.7-.3.7-.2.7-.3.7-.3.7-.2.8-.3.7c0 .3-.2.4-.3.7l-.2.7-.3.7-.2.7c0 .3-.2.4-.3.7l-.3.7-.2.7-.3.7-.3.7-.2.7-.3.7-.3.7-.2.7-.3.7-.2.7-.3.7-.3.7-.2.7-.3.8-.3.7-.2.7-.3.7c0 .3-.2.4-.3.7l-.2.7-.3.7-.2.7-.3.7-.3.7-.2.7-.3.7-.3.7-.2.7-.3.7-.3.7-.2.7-.3.7-.2.7-.3.7-.3.8-.2.7c0 .3-.2.4-.3.7l-.3.7-.2.7-.3.7c0 .3-.2.5-.3.7l-.2.7-.3.7-.2.7-.3.7-.3.7-.2.7-.3.7-.3.7-.2.7-.3.7-.3.7-.2.7-.3.8-.2.7c0 .3-.2.4-.3.7l-.3.7-.2.7-.3.7c0 .3-.2.4-.3.7l-.2.7-.3.7-.3.7-.2.7-.3.7-.2.7-.3.7-.3.7-.2.7-.3.7-.3.7-.2.7-.3.8c0 .3-.2.4-.3.7l-.2.7-.3.7-.2.7c0 .3-.2.4-.3.7l-.3.7-.2.7-.3.7-.3.7-.2.7-.3.7-.3.7-.2.7-.3.7-.2.7-.3.7-.3.7-.2.7-.3.7-.3.8-.2.7-.3.7-.2.7c0 .3-.2.4-.3.7l-.3.7-.2.7c0 .3-.2.5-.3.7l-.3.7-.2.7-.3.7-.3.7-.2.7-.3.7-.2.7-.3.7-.3.7-.2.7-.3.7-.3.8-.2.7-.3.7c0 .3-.2.4-.3.7l-.2.7-.3.7-.2.7c0 .3-.2.5-.3.7l-.3.7-.2.7-.3.7-.3.7-.2.7-.3.7-.3.7-.2.7-.3.7-.2.7-.3.7-.3.7-.2.7-.3.8-.3.7-.2.7-.3.7-.2.7c0 .3-.2.4-.3.7a16 16 0 0 0-.7 2.2 17.3 17.3 0 0 0-.9 5.3 17.6 17.6 0 0 0 5 12.3 17 17 0 0 0 12.2 5.3 16.5 16.5 0 0 0 12.3-5.3 15.9 15.9 0 0 0 4.6-7.7Z"
        style="fill:#c6392b" />
    <path
        d="m98.7 191.3-.2-.5-.2-.6-.2-.6-.2-.5-.2-.6-.2-.6c0-.2-.2-.4-.3-.5l-.2-.6-.2-.6-.2-.6-.2-.5-.2-.6-.3-.6-.2-.5-.2-.6-.2-.6-.2-.5-.2-.6-.2-.6c0-.2-.2-.4-.3-.5l-.2-.6-.2-.6-.2-.6-.2-.5-.2-.6-.3-.6-.2-.5-.2-.6-.2-.6-.2-.5-.2-.6-.2-.6c0-.2-.2-.4-.3-.5l-.2-.6-.2-.6-.2-.6-.2-.5-.2-.6-.3-.6-.2-.5-.2-.6-.2-.6-.2-.5-.2-.6-.2-.6c0-.2-.2-.4-.3-.5l-.2-.6-.2-.6-.2-.6-.2-.5-.2-.6-.3-.6-.2-.5-.2-.6-.2-.6-.2-.5-.2-.6-.2-.6c0-.2-.2-.4-.3-.5l-.2-.6-.2-.6-.2-.6-.2-.5-.2-.6-.2-.6a5.4 5.4 0 0 0-.2-.5l-.2-.6-.3-.6-.2-.5-.2-.6-.2-.6-.2-.5-.2-.6-.3-.6c0-.2 0-.4-.2-.6s-.1-.3-.2-.5l-.2-.6-.2-.6-.2-.5-.2-.6-.3-.6-.2-.5-.2-.6-.2-.6-.2-.5-.2-.6-.3-.6c0-.2 0-.4-.2-.6s-.1-.3-.2-.5l-.2-.6-.2-.6-.2-.5-.2-.6-.3-.6-.2-.5-.2-.6-.2-.6-.2-.5-.2-.6-.3-.6c0-.2 0-.4-.2-.6s-.1-.3-.2-.5l-.2-.6-.2-.6-.2-.5-.2-.6-.3-.6-.2-.5-.2-.6-.2-.6-.2-.5-.2-.6-.3-.6c0-.2 0-.4-.2-.6s-.1-.3-.2-.5l-.2-.6-.2-.6-.2-.5-.2-.6-.3-.6-.2-.5-.2-.6-.2-.6-.2-.5-.2-.6-.3-.6c0-.2 0-.4-.2-.6s-.1-.3-.2-.5l-.2-.6-.2-.6-.2-.5-.2-.6-.3-.6-.2-.5-.2-.6-.2-.6-.2-.5-.2-.6-.3-.6c0-.2 0-.4-.2-.6s-.1-.3-.2-.5l-.2-.6-.2-.6-.2-.5-.2-.6-.3-.6-.2-.5-.2-.6-.2-.6-.2-.5-.2-.6-.3-.6c0-.2 0-.4-.2-.6s-.1-.3-.2-.5l-.2-.6-.2-.6-.2-.5-.2-.6-.3-.6-.2-.5-.2-.6-.2-.6-.2-.5-.2-.6-.3-.6c0-.2 0-.4-.2-.6s-.1-.3-.2-.5l-.2-.6-.2-.6-.2-.5-.2-.6-.3-.6-.2-.5-.2-.6-.2-.6-.2-.5-.2-.6-.3-.6c0-.2 0-.4-.2-.6s-.1-.3-.2-.5l-.2-.6-.2-.6-.2-.5-.2-.6-.3-.6-.2-.5-.2-.6-.2-.6-.2-.5-.2-.6-.3-.6a18 18 0 0 0-4-6.2 17.5 17.5 0 0 0-12.4-5 18.2 18.2 0 0 0-12.2 5 17.9 17.9 0 0 0-3.6 19l.2.7.2.5.2.6.3.6c0 .2 0 .3.2.5s.1.4.2.6l.2.6.2.5.2.6.3.6.2.5.2.6.2.6.2.6.2.5.2.6.3.6.2.5.2.6.2.6.2.5.2.6.3.6.2.5.2.6.2.6.2.6.2.5.2.6.3.6.2.5.2.6.2.6.2.5.2.6.3.6.2.5.2.6.2.6.2.6.2.5.2.6.3.6.2.5.2.6.2.6.2.5.2.6.3.6.2.5.2.6.2.6.2.6.2.5.2.6.3.6.2.5.2.6.2.6.2.5.2.6.3.6.2.5.2.6.2.6.2.6.2.5.2.6.3.6c0 .2 0 .3.2.5s.1.4.2.6l.2.6.2.5.2.6.3.6.2.5.2.6.2.6.2.6.2.5.2.6.3.6c0 .2 0 .3.2.5s.1.4.2.6l.2.6.2.5.2.6.3.6.2.5.2.6.2.6.2.6.2.5.2.6.3.6c0 .2 0 .3.2.5s.1.4.2.6l.2.6.2.5.2.6.3.6.2.5.2.6.2.6.2.6.2.5.2.6.3.6.2.5.2.6.2.6.2.5.2.6.3.6.2.5.2.6.2.6.2.6.2.5.2.6.3.6.2.5.2.6.2.6.2.5.2.6.3.6.2.5.2.6.2.6.2.5.2.6.2.6.3.6.2.5.2.6.2.6.2.5.2.6.3.6.2.5.2.6.2.6.2.5.2.6.2.6.3.6.2.5.2.6.2.6.2.5.2.6.3.6c0 .2 0 .4.2.5s.1.4.2.6l.2.6.2.5.2.6.2.6.3.6c0 .2 0 .3.2.5s.1.4.2.6l.2.6.2.5.2.6.3.6c0 .2 0 .4.2.5s.1.4.2.6l.2.6.2.5.2.6.2.6.3.6c0 .2 0 .3.2.5s.1.4.2.6l.2.6.2.5.2.6.3.6.2.5.2.6.2.6.2.5.2.6.2.6.3.6c0 .2 0 .3.2.5s.1.4.2.6l.2.6.2.5.2.6a16.8 16.8 0 0 0 3.8 6 17 17 0 0 0 12.3 5.3 16.4 16.4 0 0 0 12.3-5.3 17 17 0 0 0 3.9-18.9Z"
        style="fill:url(#Degradado_sin_nombre_7)" />
    <path
        d="m180.9 191.3-.3-.7-.3-.7c0-.3-.2-.5-.3-.8l-.2-.7-.3-.8-.3-.7-.3-.7-.3-.7-.2-.8-.3-.7-.3-.7-.3-.8-.2-.7-.3-.7-.3-.8-.3-.7-.3-.7-.2-.8-.3-.7-.3-.7-.3-.8-.2-.7-.3-.7-.3-.8c0-.3-.2-.5-.3-.7l-.3-.7-.2-.8-.3-.7-.3-.7-.3-.8-.2-.7-.3-.7-.3-.8c0-.3-.2-.5-.3-.7l-.3-.7c-.2-.2-.1-.5-.2-.8l-.3-.7-.3-.8c0-.3-.2-.4-.3-.7l-.2-.7-.3-.7-.3-.8c0-.3-.2-.5-.3-.7l-.3-.8c-.2-.3-.1-.4-.2-.7l-.3-.7-.3-.8c0-.3-.2-.4-.3-.7l-.2-.7-.3-.8-.3-.7c0-.3-.2-.5-.3-.7l-.2-.8-.3-.7-.3-.7-.3-.8c0-.3-.2-.4-.3-.7l-.2-.7-.3-.8-.3-.7c0-.3-.2-.5-.3-.7l-.2-.8-.3-.7-.3-.7-.3-.8c0-.3-.2-.4-.3-.7l-.2-.7-.3-.8-.3-.7c0-.3-.2-.5-.3-.7l-.2-.8-.3-.7-.3-.7-.3-.8c0-.3-.2-.4-.3-.7l-.2-.7-.3-.8-.3-.7-.3-.7-.2-.8-.3-.7-.3-.7-.3-.8c0-.3-.1-.5-.3-.7s-.1-.5-.2-.7l-.3-.8-.3-.7-.3-.7-.2-.8-.3-.7-.3-.7-.3-.8c0-.3-.1-.5-.3-.7s-.1-.5-.2-.7l-.3-.8-.3-.7-.3-.7-.2-.8-.3-.7-.3-.7-.3-.8-.2-.7-.3-.7-.3-.8-.3-.7-.3-.7-.2-.8-.3-.7-.3-.7-.3-.8-.2-.7-.3-.7-.3-.8-.3-.7-.3-.7-.2-.8-.3-.7-.3-.7-.3-.8-.2-.7-.3-.7-.3-.8-.3-.7-.3-.7-.2-.8-.3-.7-.3-.7-.3-.8-.2-.7-.3-.7-.3-.8c0-.3-.2-.5-.3-.7l-.3-.7c-.2-.2-.1-.5-.2-.8l-.3-.7-.3-.7-.3-.8-.2-.7-.3-.7-.3-.8c0-.3-.2-.5-.3-.7l-.3-.7c-.2-.2-.1-.5-.2-.8l-.3-.7-.3-.7-.3-.8-.2-.7-.3-.7a18 18 0 0 0-4.2-6.4 17.5 17.5 0 0 0-12.3-5 16.8 16.8 0 0 0-17.2 17.2 18 18 0 0 0 1.4 7l.3.7c0 .3.2.5.3.7l.2.7.3.8.3.7.3.7.2.8.3.7.3.7.3.8c0 .3.2.5.3.7l.2.7.3.8.3.7.3.7.2.8.3.7.3.7.3.8c0 .3.2.5.3.7l.2.7.3.8.3.7.3.7.2.8.3.7.3.7.3.8c0 .3.2.5.3.7l.2.7.3.8.3.7.3.7.2.8.3.7.3.7.3.8c0 .3.2.5.3.7l.2.7.3.8.3.7.3.7.2.8.3.7.3.7.3.8c0 .3.2.5.3.7l.2.7.3.8.3.7.3.7.2.8.3.7.3.7.3.8c0 .3.2.5.3.7l.2.7.3.8.3.7.3.7.2.8.3.7.3.7.3.8.2.7.3.8.3.7.3.7.3.7.2.8.3.7.3.8.3.7.2.7.3.8.3.7.3.7.3.8.2.7.3.7.3.8c0 .3.2.4.3.7l.2.7.3.8.3.7.3.7.3.8.2.7.3.7.3.8c0 .3.2.4.3.7l.2.7.3.8.3.7.3.7.3.8.2.7.3.7.3.8c0 .3.2.4.3.7l.2.7.3.8.3.7.3.7.3.8.2.7.3.7.3.8c0 .3.2.4.3.7l.2.7.3.8.3.7.3.7.2.8.3.7.3.7.3.8c0 .3.2.5.3.7l.2.7.3.8.3.7.3.7.2.8.3.7.3.7.3.8c0 .3.2.4.3.7l.2.7.3.8.3.7c0 .3.2.5.3.7l.2.8.3.7.3.7.3.8c0 .3.2.4.3.7l.2.7.3.8.3.7c0 .3.2.5.3.7l.2.8.3.7.3.7.3.8c0 .3.2.4.3.7l.2.7.3.8.3.7a16.7 16.7 0 0 0 3.8 6.1 17 17 0 0 0 12.3 5.3 18 18 0 0 0 17.5-17.6 16.7 16.7 0 0 0-1.3-6.6Z"
        style="fill:url(#Degradado_sin_nombre_30)" />
    <path
        d="m99.6 202 .2-.4.1-.4.2-.4.2-.4.1-.5.2-.4.1-.4.2-.5.2-.4.1-.4.2-.4.1-.5.2-.4.2-.4.1-.5.2-.4.1-.4.2-.4.2-.5.1-.4.2-.4.1-.5.2-.4.2-.4.1-.4.2-.5.1-.4.2-.4.1-.5.2-.4.2-.4.1-.4.2-.5.2-.4.1-.4.2-.5.1-.4.2-.4.1-.4.2-.5.2-.4.1-.4.2-.5.1-.4.2-.4.2-.4.1-.5.2-.4.1-.4.2-.5.2-.4.1-.4.2-.4.1-.5.2-.4.2-.4.1-.5.2-.4.1-.4.2-.4.2-.5.1-.4.2-.4.1-.5.2-.4.2-.4.1-.4.2-.5.1-.4.2-.4.2-.5.1-.4.2-.4.1-.4.2-.5.2-.4.1-.4.2-.5.1-.4.2-.4.2-.4.1-.5.2-.4.1-.4.2-.5.2-.4.1-.4.2-.4.1-.5.2-.4.2-.4.1-.5.2-.4.1-.4.2-.4.2-.5.1-.4.2-.4.1-.5.2-.4.2-.4.1-.4.2-.5.1-.4.2-.4.2-.5.1-.4.2-.4.1-.5.2-.4.2-.4.1-.4.2-.5.1-.4.2-.4.2-.5.1-.4.2-.4.1-.4.2-.5.2-.4.1-.4.2-.5.1-.4.2-.4.2-.4.1-.5.2-.4.1-.4.2-.5.2-.4.1-.4.2-.4.1-.5.2-.4.2-.4.1-.5.2-.4.1-.4.2-.4.2-.5.1-.4.2-.4.1-.5.2-.4.2-.4.1-.4.2-.5.1-.4.2-.4.2-.5.1-.4a3.6 3.6 0 0 0 .2-.4l.1-.4.2-.5.2-.4a3.2 3.2 0 0 0 .1-.4l.2-.5.1-.4.2-.4.2-.4.1-.5.2-.4.1-.4.2-.5.2-.4.1-.4.2-.4.1-.5.2-.4.2-.4.1-.5.2-.4.1-.4.2-.4.2-.5.1-.4.2-.4.1-.5.2-.4.2-.4.1-.4.2-.5.1-.4.2-.4.2-.5.1-.4.2-.4.1-.4.2-.5.2-.4.1-.4.2-.5.1-.4.2-.4.2-.4.1-.5.2-.4.1-.4.2-.5.2-.4.1-.4.2-.4.1-.5.2-.4.2-.4.1-.5.2-.4.1-.4.2-.4.2-.5.1-.4.2-.4.1-.5.2-.4.2-.4.1-.4.2-.5.1-.4.2-.4.2-.5.1-.4.2-.4.1-.4.2-.5.2-.4.1-.4.2-.5.1-.4.2-.4.2-.4.1-.5.2-.4.1-.4.2-.5.2-.4.1-.4.2-.4.1-.5.2-.4.2-.4.1-.5.2-.4.1-.4.2-.4.2-.5.1-.4a17.3 17.3 0 0 0 1.7-7.6 17 17 0 0 0-5.2-12.3 17.5 17.5 0 0 0-12.3-4.9 18.2 18.2 0 0 0-12.3 5 21.2 21.2 0 0 0-2.2 2.9 16.6 16.6 0 0 0-1.8 3.4l-.1.5-.2.4-.1.4-.2.5-.2.4-.1.4-.2.4-.1.5-.2.4-.2.4-.1.5-.2.4-.1.4-.2.5-.2.4-.1.4-.2.4-.1.5-.2.4-.2.4-.1.4-.2.5-.1.4-.2.4-.2.5-.1.4-.2.4-.1.4-.2.5-.2.4-.1.4-.2.5-.1.4-.2.4-.1.5-.2.4-.2.4-.1.4-.2.4-.1.5-.2.4-.1.4-.2.4-.2.5-.1.4-.2.4-.1.5-.2.4-.2.4-.1.4-.2.5-.1.4-.2.4-.2.5-.1.4-.2.4-.1.4-.2.5-.2.4-.1.4-.2.5-.1.4-.2.4-.2.4-.1.5-.2.4-.1.4-.2.5-.2.4-.1.4-.2.5-.1.4-.2.4-.2.4-.1.5-.2.4-.1.4-.2.5-.2.4-.1.4-.2.4-.1.5-.2.4-.2.4-.1.5-.2.4-.1.4-.2.4-.2.5-.1.4-.2.4-.1.5-.2.4-.2.4-.1.4-.2.5-.1.4-.2.4-.2.5-.1.4-.2.4-.1.4-.2.5-.2.4-.1.4-.2.5-.1.4-.2.4-.2.4-.1.5-.2.4-.1.4-.2.5-.2.4-.1.4-.2.4-.1.5-.2.4-.2.4-.1.5-.2.4-.1.4-.2.4-.2.5-.1.4-.2.4-.1.5-.2.4-.2.4-.1.4-.2.5-.1.4-.2.4-.2.5-.1.4-.2.4-.1.4-.2.5-.2.4-.1.4-.2.5-.1.4-.2.4-.2.4-.1.5-.2.4-.1.4-.2.5-.2.4-.1.4-.2.4-.1.5-.2.4-.2.4-.1.5-.2.4-.1.4-.2.4-.1.5-.2.4-.2.4-.1.5-.2.4-.1.4-.2.4-.2.5-.1.4-.2.4-.1.5-.2.4-.2.4-.1.4-.2.5-.1.4-.2.4-.2.5-.1.4-.2.4-.1.4-.2.5-.2.4-.1.4-.2.5-.1.4-.2.4-.2.4-.1.5-.2.4-.1.4-.2.5-.2.4-.1.4-.2.4-.1.5-.2.4-.2.4-.1.5-.2.4-.1.4-.2.4-.2.5-.1.4-.2.4-.1.5-.2.4-.2.4-.1.4-.2.5-.1.4-.2.4-.2.5-.1.4-.2.4-.1.4-.2.5-.2.4-.1.4-.2.5-.1.4-.2.4-.2.4-.1.5-.2.4-.1.4-.2.5-.2.4-.1.4-.2.4-.1.5-.2.4-.2.4-.1.5-.2.4-.1.4-.2.4-.2.5-.1.4-.2.4-.1.5-.2.4-.2.4-.1.4-.2.5-.1.4-.2.4-.2.5-.1.4-.2.4-.1.4-.2.5-.2.4-.1.4a18.4 18.4 0 0 0-.7 2.2 17.4 17.4 0 0 0-.8 5 17.6 17.6 0 0 0 5 12.3 17 17 0 0 0 12.2 5.2 16.4 16.4 0 0 0 12.3-5.2 16 16 0 0 0 4.7-7.7l.1-.4Z"
        style="fill:url(#Degradado_sin_nombre_154)" />
</svg>